<svg width="605" height="605" viewBox="0 0 605 605" fill="none" xmlns="http://www.w3.org/2000/svg">
<rect x="101.5" y="1.5" width="102" height="102" fill="#F8F7F7" stroke="#A4A4A4" stroke-width="3"/>
<rect x="101.5" y="101.5" width="102" height="102" fill="#F8F7F7" stroke="#A4A4A4" stroke-width="3"/>
<rect x="101.5" y="201.5" width="102" height="102" fill="#F8F7F7" stroke="#A4A4A4" stroke-width="3"/>
<rect x="101.5" y="301.5" width="102" height="102" fill="#F8F7F7" stroke="#A4A4A4" stroke-width="3"/>
<rect x="101.5" y="401.5" width="102" height="102" fill="#F8F7F7" stroke="#A4A4A4" stroke-width="3"/>
<rect x="201.5" y="1.5" width="102" height="102" fill="#F8F7F7" stroke="#A4A4A4" stroke-width="3"/>
<rect x="201.5" y="101.5" width="102" height="102" fill="#F8F7F7" stroke="#A4A4A4" stroke-width="3"/>
<rect x="201.5" y="201.5" width="102" height="102" fill="#F8F7F7" stroke="#A4A4A4" stroke-width="3"/>
<rect x="201.5" y="301.5" width="102" height="102" fill="#F8F7F7" stroke="#A4A4A4" stroke-width="3"/>
<rect x="201.5" y="401.5" width="102" height="102" fill="#F8F7F7" stroke="#A4A4A4" stroke-width="3"/>
<rect x="301.5" y="1.5" width="102" height="102" fill="#F8F7F7" stroke="#A4A4A4" stroke-width="3"/>
<rect x="301.5" y="101.5" width="102" height="102" fill="#F8F7F7" stroke="#A4A4A4" stroke-width="3"/>
<rect x="301.5" y="201.5" width="102" height="102" fill="#F8F7F7" stroke="#A4A4A4" stroke-width="3"/>
<rect x="301.5" y="301.5" width="102" height="102" fill="#F8F7F7" stroke="#A4A4A4" stroke-width="3"/>
<rect x="301.5" y="401.5" width="102" height="102" fill="#007900" stroke="#A4A4A4" stroke-width="3"/>
<rect x="401.5" y="1.5" width="102" height="102" fill="#F8F7F7" stroke="#A4A4A4" stroke-width="3"/>
<rect x="401.5" y="101.5" width="102" height="102" fill="#F8F7F7" stroke="#A4A4A4" stroke-width="3"/>
<rect x="401.5" y="201.5" width="102" height="102" fill="#F8F7F7" stroke="#A4A4A4" stroke-width="3"/>
<rect x="401.5" y="301.5" width="102" height="102" fill="#F8F7F7" stroke="#A4A4A4" stroke-width="3"/>
<rect x="401.5" y="401.5" width="102" height="102" fill="#F8F7F7" stroke="#A4A4A4" stroke-width="3"/>
<rect x="501.5" y="1.5" width="102" height="102" fill="#F8F7F7" stroke="#A4A4A4" stroke-width="3"/>
<rect x="501.5" y="101.5" width="102" height="102" fill="#F8F7F7" stroke="#A4A4A4" stroke-width="3"/>
<rect x="501.5" y="201.5" width="102" height="102" fill="#F8F7F7" stroke="#A4A4A4" stroke-width="3"/>
<rect x="501.5" y="301.5" width="102" height="102" fill="#F8F7F7" stroke="#A4A4A4" stroke-width="3"/>
<rect x="501.5" y="401.5" width="102" height="102" fill="#F8F7F7" stroke="#A4A4A4" stroke-width="3"/>
<rect x="1.5" y="1.5" width="100" height="100" fill="#F8F7F7" stroke="#A4A4A4" stroke-width="3"/>
<rect x="101.5" y="501.5" width="102" height="102" fill="#F8F7F7" stroke="#A4A4A4" stroke-width="3"/>
<rect x="201.5" y="501.5" width="102" height="102" fill="#F8F7F7" stroke="#A4A4A4" stroke-width="3"/>
<rect x="301.5" y="501.5" width="102" height="102" fill="#F8F7F7" stroke="#A4A4A4" stroke-width="3"/>
<rect x="401.5" y="501.5" width="102" height="102" fill="#F8F7F7" stroke="#A4A4A4" stroke-width="3"/>
<rect x="501.5" y="501.5" width="102" height="102" fill="#F8F7F7" stroke="#A4A4A4" stroke-width="3"/>
</svg>
